<?xml version="1.0" standalone="no"?>
<!DOCTYPE svg PUBLIC "-//W3C//DTD SVG 20010904//EN"
 "http://www.w3.org/TR/2001/REC-SVG-20010904/DTD/svg10.dtd">
<svg version="1.0" xmlns="http://www.w3.org/2000/svg"
 width="1000.000000pt" height="1000.000000pt" viewBox="0 0 1000.000000 1000.000000"
 preserveAspectRatio="xMidYMid meet">
<metadata>
Created by potrace 1.14, written by Peter Selinger 2001-2017
</metadata>
<g transform="translate(0.000000,1000.000000) scale(0.100000,-0.100000)"
fill="#000000" stroke="none">
<path d="M0 5000 l0 -5000 5000 0 5000 0 0 5000 0 5000 -5000 0 -5000 0 0
-5000z m4230 4575 c18 -22 192 -275 388 -563 l357 -523 141 146 c150 156 170
167 211 123 12 -13 200 -367 418 -788 218 -421 397 -766 398 -766 1 -1 29 -4
62 -8 390 -39 765 -132 858 -214 26 -23 22 -69 -9 -97 -58 -54 -328 -135 -547
-165 -48 -7 -89 -16 -92 -21 -3 -4 8 -35 25 -68 l30 -60 57 5 c290 23 716 89
937 145 205 52 325 108 355 168 27 54 -43 121 -178 171 -117 43 -349 98 -486
115 -27 4 -68 11 -91 15 -36 8 -132 22 -351 50 -122 16 -544 51 -552 46 -10
-7 -51 22 -51 35 0 6 17 8 43 5 23 -3 98 -8 167 -11 69 -3 184 -9 255 -14 72
-5 137 -9 145 -9 15 0 239 -19 315 -26 22 -3 112 -11 200 -20 88 -9 176 -18
195 -21 19 -3 76 -10 125 -15 50 -6 97 -12 105 -15 8 -2 47 -7 85 -10 94 -8
471 -79 617 -116 204 -51 381 -129 408 -179 18 -34 11 -76 -17 -105 -40 -41
-169 -98 -313 -139 -124 -36 -539 -119 -655 -130 -33 -4 -80 -11 -105 -16 -25
-6 -90 -14 -145 -20 -55 -5 -165 -17 -245 -25 -123 -13 -502 -46 -663 -59 -26
-2 -50 -6 -53 -9 -3 -3 571 -1116 1276 -2473 743 -1432 1280 -2477 1278 -2489
l-3 -20 -4066 -3 c-3477 -2 -4068 0 -4078 12 -9 11 98 372 499 1682 281 918
520 1695 531 1726 12 32 27 62 34 68 18 15 45 1 218 -113 76 -49 139 -88 140
-86 4 5 575 1651 579 1668 4 17 11 17 -307 37 -33 2 -109 8 -170 14 -60 6
-137 13 -170 15 -82 5 -434 42 -520 55 -38 5 -104 14 -145 19 -160 20 -571
104 -704 143 -129 38 -242 90 -283 130 -101 98 25 193 372 283 72 18 171 41
220 50 50 8 110 20 135 26 74 16 87 18 295 45 110 14 202 27 205 29 3 2 48 7
100 10 52 4 98 9 101 11 4 2 85 10 180 19 604 53 695 58 725 38 30 -19 24 -26
-24 -29 -103 -7 -161 -12 -202 -18 -25 -3 -65 -8 -90 -10 -110 -12 -226 -27
-240 -31 -8 -2 -33 -6 -55 -10 -476 -69 -755 -159 -795 -256 -44 -104 197
-203 705 -289 172 -29 305 -47 405 -54 30 -3 73 -7 95 -10 118 -17 204 -24
222 -20 14 4 25 22 37 61 19 59 17 65 -17 70 -327 44 -621 127 -687 193 -25
25 -26 72 -2 92 84 74 379 152 776 204 l128 17 14 33 c23 56 21 58 -58 50 -40
-4 -87 -8 -104 -9 l-32 -2 24 22 c21 19 39 23 110 27 51 2 89 8 93 15 4 6 27
70 52 141 l44 130 32 -6 c24 -5 36 -1 53 16 25 25 22 64 -8 127 -15 32 -15 37
7 101 12 37 36 85 52 107 55 76 76 129 69 177 -5 36 2 68 46 195 29 84 63 166
75 182 12 16 19 37 16 45 -4 9 63 215 148 459 228 657 205 598 240 613 36 15
44 11 85 -41z"/>
<path d="M6207 7094 c-4 -4 104 -224 119 -243 9 -10 103 36 131 64 67 66 20
103 -234 180 -6 2 -13 1 -16 -1z"/>
<path d="M3106 7054 c-150 -45 -194 -100 -126 -157 29 -25 127 -67 154 -67 11
0 96 213 96 241 0 15 -40 9 -124 -17z"/>
<path d="M2655 3205 c-222 -41 -374 -164 -419 -340 -44 -166 13 -349 146 -469
76 -69 146 -109 280 -162 315 -123 403 -200 385 -335 -8 -60 -44 -106 -107
-137 -51 -25 -64 -27 -175 -27 -133 0 -180 10 -246 55 -90 59 -128 186 -100
334 6 33 9 61 6 64 -6 6 -185 -28 -207 -40 -38 -19 -14 -228 37 -313 55 -94
174 -171 311 -200 38 -8 123 -18 189 -21 372 -19 625 139 668 417 43 277 -149
486 -585 638 -140 48 -189 72 -246 118 -75 61 -91 127 -51 209 16 35 32 49 77
71 53 26 65 28 182 28 149 0 205 -16 274 -76 59 -52 81 -120 73 -221 -7 -79
-16 -76 120 -51 104 18 99 11 83 113 -22 138 -100 243 -225 302 -114 53 -316
72 -470 43z"/>
<path d="M4145 3206 c-233 -37 -397 -148 -484 -328 -51 -107 -68 -174 -83
-326 -21 -223 16 -466 95 -617 44 -85 166 -204 250 -244 123 -59 202 -74 387
-74 137 0 178 4 245 22 316 85 471 306 492 705 15 287 -52 534 -183 676 -152
163 -419 232 -719 186z m255 -129 c100 -53 129 -172 137 -564 8 -382 -13 -595
-70 -697 -62 -112 -247 -114 -312 -3 -59 101 -80 312 -72 700 6 299 21 413 66
492 35 61 92 95 161 95 29 0 63 -8 90 -23z"/>
<path d="M5090 3110 l0 -80 205 0 205 0 0 -695 0 -695 255 0 255 0 0 695 0
695 205 0 205 0 0 80 0 80 -665 0 -665 0 0 -80z"/>
<path d="M6642 2422 c-133 -422 -243 -770 -242 -774 0 -5 40 -8 89 -8 l90 0
50 159 c28 87 51 164 51 170 0 8 76 11 254 11 l254 0 14 -47 c8 -27 30 -103
49 -170 l34 -123 237 0 c192 0 238 3 238 13 0 8 -42 155 -94 328 -51 173 -153
515 -226 762 l-134 447 -210 0 -211 0 -243 -768z m403 60 c52 -183 95 -334 95
-337 0 -3 -90 -5 -200 -5 -134 0 -200 3 -200 11 0 16 203 669 207 665 2 -2 46
-152 98 -334z"/>
</g>
</svg>
